<?xml version="1.0" encoding="UTF-8"?>
<svg width="700pt" height="700pt" version="1.1" viewBox="0 0 700 700" xmlns="http://www.w3.org/2000/svg">
 <path d="m343.06 23.426c-66.867 1.8125-130.38 29.684-176.98 77.664-46.605 47.984-72.613 112.28-72.477 179.18 0 45.008 11.848 89.227 34.352 128.2 22.5 38.98 54.871 71.352 93.848 93.855 38.98 22.504 83.195 34.352 128.2 34.352 45.012 0 89.227-11.848 128.21-34.352 38.977-22.504 71.344-54.875 93.848-93.855 22.504-38.977 34.352-83.195 34.348-128.2 0.097656-45.855-12.105-90.895-35.336-130.43-23.23-39.535-56.637-72.117-96.738-94.348-40.102-22.234-85.434-33.309-131.27-32.066zm6.9414 23.754v466.17h0.003906c-61.461-0.54297-120.22-25.344-163.48-68.996-43.27-43.652-67.543-102.62-67.543-164.09 0-61.465 24.273-120.44 67.543-164.09 43.266-43.652 102.02-68.449 163.48-68.996z"/>
</svg>
